<svg width="128" height="128" viewBox="0 0 128 128" fill="none" xmlns="http://www.w3.org/2000/svg">
<path d="M124.742 58.3783L69.6247 3.26429C66.4527 0.0902891 61.3047 0.0902891 58.1277 3.26429L46.6847 14.7103L61.2027 29.2283C64.5777 28.0893 68.4457 28.8533 71.1347 31.5423C72.4162 32.8249 73.3108 34.4423 73.7163 36.2095C74.1218 37.9767 74.0218 39.8223 73.4277 41.5353L87.4197 55.5293C90.8047 54.3623 94.7117 55.1163 97.4137 57.8243C101.194 61.6013 101.194 67.7243 97.4137 71.5033C96.5154 72.402 95.4489 73.1149 94.275 73.6013C93.1011 74.0877 91.8429 74.3381 90.5722 74.3381C89.3015 74.3381 88.0433 74.0877 86.8694 73.6013C85.6955 73.1149 84.629 72.402 83.7307 71.5033C82.3811 70.1528 81.4611 68.4334 81.0865 66.5612C80.712 64.6891 80.8996 62.748 81.6257 60.9823L68.5777 47.9333L68.5757 82.2743C69.5224 82.7405 70.3867 83.3579 71.1347 84.1023C74.9137 87.8793 74.9137 94.0003 71.1347 97.7853C67.3557 101.562 61.2307 101.562 57.4557 97.7853C53.6777 94.0013 53.3677 87.8803 57.1447 84.1023C58.0787 83.1693 58.9997 82.4643 59.9997 81.9923V47.3333C58.9997 46.8613 58.0797 46.1613 57.1437 45.2223C54.2827 42.3623 53.7477 38.1623 55.2157 34.6463L40.9827 20.3333L3.2287 58.1233C0.0536954 61.3003 0.0736954 66.4483 3.2487 69.6233L58.3747 124.737C61.5477 127.911 66.6997 127.911 69.8777 124.737L124.738 69.8793C127.913 66.7033 127.916 61.5523 124.742 58.3783V58.3783Z" fill="#F34F29"/>
</svg>
