<svg width="128" height="128" viewBox="0 0 128 128" fill="none" xmlns="http://www.w3.org/2000/svg">
<path fill-rule="evenodd" clip-rule="evenodd" d="M64.0003 5.10254C30.6533 5.10254 3.6123 32.1375 3.6123 65.4905C3.6123 92.1725 20.9153 114.808 44.9093 122.794C47.9263 123.354 49.0343 121.484 49.0343 119.889C49.0343 118.449 48.9783 113.692 48.9523 108.646C32.1523 112.299 28.6073 101.521 28.6073 101.521C25.8603 94.5405 21.9023 92.6845 21.9023 92.6845C16.4223 88.9365 22.3153 89.0145 22.3153 89.0145C28.3783 89.4395 31.5723 95.2375 31.5723 95.2375C36.9583 104.468 45.6993 101.8 49.1453 100.258C49.6873 96.3545 51.2523 93.6895 52.9793 92.1815C39.5663 90.6565 25.4653 85.4775 25.4653 62.3385C25.4653 55.7455 27.8253 50.3585 31.6883 46.1285C31.0603 44.6085 28.9933 38.4665 32.2723 30.1485C32.2723 30.1485 37.3423 28.5255 48.8823 36.3385C53.7003 34.9995 58.8673 34.3265 64.0003 34.3035C69.1303 34.3265 74.3003 34.9975 79.1273 36.3365C90.6533 28.5235 95.7173 30.1465 95.7173 30.1465C99.0043 38.4635 96.9373 44.6065 96.3103 46.1265C100.182 50.3565 102.525 55.7435 102.525 62.3365C102.525 85.5305 88.3983 90.6365 74.9513 92.1325C77.1183 94.0065 79.0483 97.6825 79.0483 103.316C79.0483 111.396 78.9783 117.899 78.9783 119.888C78.9783 121.495 80.0663 123.378 83.1263 122.785C107.106 114.791 124.389 92.1625 124.389 65.4905C124.388 32.1395 97.3503 5.10354 64.0003 5.10354V5.10254Z" fill="white"/>
<path d="M26.4846 91.8054C26.3516 92.1054 25.8796 92.1954 25.4496 91.9904C25.0096 91.7944 24.7646 91.3854 24.9066 91.0844C25.0366 90.7744 25.5096 90.6894 25.9466 90.8964C26.3866 91.0934 26.6366 91.5064 26.4836 91.8064L26.4846 91.8054ZM28.9306 94.5344C28.6436 94.8014 28.0806 94.6774 27.6986 94.2544C27.3026 93.8344 27.2286 93.2714 27.5216 93.0004C27.8196 92.7344 28.3656 92.8604 28.7616 93.2804C29.1556 93.7064 29.2336 94.2644 28.9316 94.5354L28.9306 94.5344ZM31.3126 98.0114C30.9426 98.2694 30.3366 98.0284 29.9626 97.4914C29.5926 96.9534 29.5926 96.3084 29.9726 96.0514C30.3456 95.7934 30.9426 96.0264 31.3226 96.5584C31.6906 97.1034 31.6906 97.7484 31.3126 98.0104V98.0114ZM34.5736 101.372C34.2436 101.737 33.5376 101.639 33.0216 101.142C32.4946 100.655 32.3476 99.9624 32.6786 99.5984C33.0146 99.2324 33.7236 99.3344 34.2426 99.8284C34.7696 100.314 34.9286 101.008 34.5756 101.371L34.5736 101.372ZM39.0736 103.323C38.9266 103.796 38.2486 104.011 37.5636 103.809C36.8806 103.602 36.4336 103.049 36.5736 102.571C36.7136 102.094 37.3966 101.871 38.0856 102.086C38.7686 102.292 39.2156 102.842 39.0736 103.323ZM44.0166 103.684C44.0336 104.182 43.4536 104.594 42.7366 104.604C42.0136 104.621 41.4286 104.217 41.4216 103.727C41.4216 103.224 41.9896 102.817 42.7116 102.803C43.4286 102.79 44.0176 103.19 44.0176 103.683L44.0166 103.684ZM48.6146 102.902C48.7006 103.387 48.2016 103.886 47.4886 104.019C46.7886 104.149 46.1386 103.847 46.0486 103.366C45.9626 102.868 46.4706 102.369 47.1706 102.24C47.8846 102.117 48.5246 102.41 48.6146 102.903V102.902Z" fill="white"/>
</svg>
