<svg width="128" height="128" viewBox="0 0 128 128" fill="none" xmlns="http://www.w3.org/2000/svg">
<path fill-rule="evenodd" clip-rule="evenodd" d="M90.4909 57.2817C90.1209 52.4917 88.9949 47.8727 87.4289 43.3477C84.1849 33.2437 78.9789 24.3017 71.6459 16.6077C69.7919 14.6617 67.7299 12.8787 66.4369 10.4567C65.6189 8.92469 64.8399 7.37169 64.0429 5.82769L63.5379 4.55469C63.4529 4.84669 63.3989 4.95069 63.3959 5.05569C63.3309 7.57269 61.9049 9.27969 60.1289 10.8727C58.1319 12.6657 56.2729 14.6117 54.3539 16.4907L48.4529 24.2537C46.8609 27.1787 45.2709 30.1037 43.6809 33.0287L40.4909 41.6457L40.3949 41.7797C38.6389 47.5477 37.7729 53.4777 37.3469 59.4677C37.1869 61.7187 37.3689 64.0027 37.4959 66.2657C37.6769 69.5007 38.2389 72.6807 39.0819 75.8107C42.1439 87.1827 48.3579 96.6157 56.8529 104.63C58.4319 106.119 60.0519 107.473 61.6999 108.89C61.9819 107.925 62.2069 106.96 62.4629 105.995C62.7189 105.034 62.9779 104.078 63.1509 103.114C62.9769 104.078 62.7819 105.034 62.5889 105.995L61.7629 108.89L62.5009 111.391L63.1849 115.275L63.5109 119.328C63.5079 120.151 63.4749 120.976 63.5249 121.798C63.5369 122.008 63.8129 122.202 63.9669 122.404L65.3429 122.887L66.7769 123.445L66.5309 119.842L66.5199 116.294L67.0149 110.889L67.3739 109.712L68.4009 107.892C69.6689 106.872 71.0299 105.946 72.1849 104.811C74.2749 102.757 76.3599 100.677 78.2299 98.4277C80.6639 95.5126 82.7422 92.3181 84.4209 88.9117C85.5429 86.6277 86.5989 84.2977 87.4729 81.9107C88.2429 79.8067 88.7199 77.5957 89.3269 75.4317C89.3809 75.2757 89.4529 75.1227 89.4869 74.9637C90.7409 69.1227 90.9519 63.2227 90.4909 57.2817V57.2817ZM66.8919 106.657L66.0869 104.894L66.8919 106.657L68.0749 107.667L66.8919 106.657Z" fill="#4FAA41"/>
</svg>
