<svg width="128" height="128" viewBox="0 0 128 128" fill="none" xmlns="http://www.w3.org/2000/svg">
<path d="M121.8 93.1002C115.1 96.6002 80.3998 110.8 72.9998 114.7C65.5998 118.6 61.4998 118.5 55.6998 115.7C49.8998 112.9 12.9998 98.1002 6.2998 94.9002C2.9998 93.3002 1.2998 92.0002 1.2998 90.7002V78.0002C1.2998 78.0002 49.2998 67.5002 57.0998 64.8002C64.8998 62.0002 67.4998 61.9002 74.0998 64.3002C80.6998 66.7002 120.2 73.8002 126.7 76.2002V88.7002C126.7 90.0002 125.2 91.4002 121.8 93.1002V93.1002Z" fill="#A41E11"/>
<path d="M121.8 80.5001C115.1 84.0001 80.3996 98.2 72.9996 102.1C65.5996 106 61.4996 105.9 55.6996 103.1C49.8996 100.3 12.9996 85.4 6.29964 82.2C-0.300359 79 -0.50036 76.8001 5.99964 74.3001C12.4996 71.7001 49.1996 57.3001 56.9996 54.6C64.7996 51.8001 67.3996 51.7 73.9996 54.1C80.5996 56.5 115.1 70.2 121.6 72.6C128.3 75.0001 128.5 77.0001 121.8 80.5001Z" fill="#D82C20"/>
<path d="M121.8 72.5001C115.1 76.0001 80.3998 90.2 72.9998 94.1C65.5998 97.9 61.4998 97.9 55.6998 95.1C49.8998 92.3 12.9998 77.4 6.2998 74.2C2.9998 72.6 1.2998 71.3001 1.2998 70.0001V57.3001C1.2998 57.3001 49.2998 46.8001 57.0998 44.1C64.8998 41.3001 67.4998 41.2 74.0998 43.6C80.6998 46 120.2 53.1001 126.7 55.5001V68.0001C126.7 69.3001 125.2 70.7001 121.8 72.5001V72.5001Z" fill="#A41E11"/>
<path d="M121.8 59.7999C115.1 63.2999 80.4004 77.4999 73.0004 81.3999C65.6004 85.1999 61.5004 85.1999 55.7004 82.3999C49.9004 79.5999 13.0004 64.6999 6.30035 61.4999C-0.399645 58.2999 -0.499645 56.0999 6.00035 53.5999C12.5004 50.9999 49.2004 36.5999 57.0004 33.8999C64.8004 31.0999 67.4004 30.9999 74.0004 33.3999C80.6004 35.7999 115.1 49.4999 121.6 51.8999C128.3 54.2999 128.5 56.2999 121.8 59.7999V59.7999Z" fill="#D82C20"/>
<path d="M121.8 50.9997C115.1 54.4997 80.4002 68.6997 73.0002 72.5997C65.6002 76.3997 61.5002 76.3997 55.7002 73.5997C49.9002 70.8997 13.0002 55.9997 6.3002 52.7997C3.0002 51.1997 1.2002 49.8997 1.2002 48.5997V35.8997C1.2002 35.8997 49.2002 25.3997 57.0002 22.6997C64.8002 19.8997 67.4002 19.7997 74.0002 22.1997C80.6002 24.5997 120.1 31.6997 126.6 34.0997V46.5997C126.7 47.8997 125.2 49.1997 121.8 50.9997Z" fill="#A41E11"/>
<path d="M121.8 38.3004C115.1 41.8004 80.4004 56.0004 73.0004 59.9004C65.6004 63.7004 61.5004 63.7004 55.7004 60.9004C49.9004 58.1004 13.0004 43.3004 6.30035 40.1004C-0.399645 36.9004 -0.499645 34.7004 6.00035 32.2004C12.5004 29.6004 49.2004 15.2004 57.0004 12.5004C64.8004 9.70044 67.4004 9.60044 74.0004 12.0004C80.6004 14.4004 115.1 28.1004 121.6 30.5004C128.3 32.9004 128.5 34.9004 121.8 38.3004V38.3004Z" fill="#D82C20"/>
<path d="M80.4002 26.1004L69.6002 27.3004L67.1002 33.1004L63.2002 26.6004L50.7002 25.5004L60.0002 22.1004L57.2002 16.9004L66.0002 20.3004L74.2002 17.6004L72.0002 23.0004L80.4002 26.1004ZM66.5002 54.5004L46.2002 46.1004L75.3002 41.7004L66.5002 54.5004Z" fill="white"/>
<path d="M38.4004 41.4004C46.9608 41.4004 53.9004 38.7141 53.9004 35.4004C53.9004 32.0867 46.9608 29.4004 38.4004 29.4004C29.84 29.4004 22.9004 32.0867 22.9004 35.4004C22.9004 38.7141 29.84 41.4004 38.4004 41.4004Z" fill="white"/>
<path d="M93.2998 27.7002L110.5 34.5002L93.2998 41.3002V27.7002Z" fill="#7A0C00"/>
<path d="M74.2998 35.3002L93.2998 27.7002V41.3002L91.3998 42.1002L74.2998 35.3002Z" fill="#AD2115"/>
</svg>
